<?xml version="1.0" encoding="utf-8"?>
<!DOCTYPE svg PUBLIC "-//W3C//DTD SVG 1.1//EN" "http://www.w3.org/Graphics/SVG/1.1/DTD/svg11.dtd">
<svg version="1.1" xmlns="http://www.w3.org/2000/svg" xmlns:xlink="http://www.w3.org/1999/xlink" x="0px" y="0px" width="40.19px"
	 height="53.128px" viewBox="0 0 40.19 53.128" enable-background="new 0 0 40.19 53.128" xml:space="preserve">
<g id="Layer_1">
	<g>
		<path fill="#338E72" d="M4.917,44.444c0.074-0.313-0.068-0.5-0.149-0.763c-0.588-1.897-1.285-3.76-1.968-5.69
			c-0.511,0.32-0.983,0.689-1.516,0.918c-0.242,0.104-0.604-0.07-0.911-0.118c0.067-0.286,0.179-0.57,0.193-0.858
			c0.041-0.865,0.156-1.748,0.04-2.596c-0.351-2.556,0.463-4.854,1.404-7.14c0.088-0.213,0.159-0.435,0.264-0.639
			c0.034-0.066,0.151-0.09,0.679-0.377c-0.748,2.975,0.012,5.472,1.362,7.886c0-0.422-0.113-0.888,0.029-1.256
			c0.169-0.437,0.485-0.958,0.873-1.123c0.279-0.119,0.957,0.172,1.153,0.476c1.105,1.712,2.616,1.24,4.116,0.871
			c1.616-0.397,3.223-0.668,4.812,0.09c1.247,0.595,2.511,1.161,3.728,1.814c0.886,0.475,1.059,1.229,0.89,2.254
			c-0.182,1.108-0.041,2.269-0.041,3.822c0.412-0.671,0.613-0.997,0.754-1.227c0.35,0.115,0.694,0.229,1.039,0.343
			c0.269-1.635,2.007-2.097,2.585-2.995c0.285-0.442,0.972-0.349,1.045-0.548c0.257-0.696,0.365-1.445,0.567-2.163
			c0.277-0.982,0.386-2.088,0.925-2.903c1.46-2.208,1.18-4.512,0.801-6.978c-2.063,0.65-4.04,1.273-6.093,1.92
			c-0.014-0.028-0.181-0.197-0.164-0.345c0.217-1.888-1.001-2.245-2.467-2.34c-1.857-0.121-3.713-0.31-5.571-0.323
			c-1.133-0.008-1.915,0.467-1.336,1.869c0.224,0.542,0.236,1.17,0.085,1.899c-0.228-0.572-0.414-1.167-0.696-1.711
			c-0.268-0.516-0.636-0.98-0.961-1.467c-0.357,0.331-0.749,0.632-1.06,1.001c-0.257,0.305-0.42,0.69-0.685,1.144
			c-0.623-1.095,0.72-2.669-0.904-3.265c-1.078-0.396-2.233-0.582-3.393-0.872c-0.127,0.794-0.229,1.435-0.331,2.075
			c-0.493-1.075-0.789-2.081-2.26-1.329c-0.138,0.07-0.536-0.37-0.845-0.596c-0.049,0.1-0.178,0.367-0.309,0.634
			c-0.062-0.05-0.18-0.109-0.174-0.151c0.06-0.436,0.041-1.193,0.231-1.252c1.348-0.413,1.187-1.47,1.267-2.491
			C2.443,13.32,5.039,7.612,9.818,3.018c1.867-1.794,4.287-2.873,6.956-2.867c3.117,0.006,6.245,0.102,9.346,0.393
			c1.227,0.115,2.519,0.67,3.567,1.354c3.705,2.416,5.327,6.224,6.477,10.284c0.8,2.826,1.34,5.746,2.377,8.48
			c1.61,4.242,1.447,8.504,0.807,12.835c-0.334,2.263-0.639,4.534-1.096,6.773c-0.278,1.361-0.786,2.68-1.259,3.994
			c-0.388,1.077,2.055,4.225,2.321,4.554c-1.856,1.707-4.176,1.977-6.213,1.862c-0.137,0.204-2.01,1.702-2.339,2.192
			c-0.38-0.409-1.069-1.49-1.426-1.811c-0.261-0.235-0.588-0.397-0.885-0.592c-0.177,0.088-0.354,0.176-0.531,0.264
			c-0.232-2.58-0.465-5.16-0.702-7.793c-0.841,0.612-1.851,1.258-2.76,2.025c-2.345,1.977-4.643,4.008-6.963,6.014
			c-2.025,1.751-4.288,1.444-6.615,0.803c-0.885-0.244-3.443,0.185-4.136-1.793c-0.33-0.943-0.835-1.844-1.035-2.811
			c-0.338-1.632-0.695-1.08-0.768-2.127 M15.278,23.216c-1.022-0.453-1.79-0.794-2.637-1.169c1.845-2.012,8.009-1.035,10.059,1.457
			c-1.519,1.046-2.922-0.998-4.512-0.15c0.638,0.285,1.145,0.498,1.64,0.735c0.543,0.261,1.056,0.597,1.619,0.798
			c0.325,0.116,0.742,0.109,1.084,0.024c1.122-0.281,2.221-0.655,3.343-0.933c1.555-0.386,2.133-1.46,1.211-2.79
			c-1.427-2.059-2.923-4.096-4.61-5.942c-2.168-2.372-5.243-3.833-6.665-6.998c-0.768-1.71-1.818-2.059-3.642-1.557
			c-1.054,0.29-2.201,0.733-2.975,1.46c-2.579,2.423-4.708,5.139-4.956,8.926c-0.127,1.94-0.153,2.134,1.743,2.661
			c1.058,0.294,1.49,0.922,1.894,1.949c0.431,1.097,1.405,1.998,2.226,2.909c0.172,0.191,0.725,0.126,1.076,0.053
			c1.033-0.217,2.063-0.467,3.074-0.772C14.605,23.77,14.902,23.466,15.278,23.216z M30.573,28.179
			c-1.028,1.408-1.375,2.901-0.786,4.587c0.709,2.029,1.767,2.534,3.372,0.921c1.965-1.974,3.464-4.426,3.565-7.385
			c0.034-1-0.344-1.907-1.535-2.189c-0.936-0.222-1.789-0.345-2.393,0.698c2.577,0.651,3.886,2.845,2.36,3.991
			c-0.519-0.693-1.04-1.388-1.561-2.083c-0.136,0.082-0.271,0.164-0.407,0.246c0.327,0.691,0.766,1.355,0.941,2.083
			c0.11,0.46-0.005,1.259-0.317,1.477c-0.641,0.446-1.483,0.602-2.362,0.921C31.623,30.297,32.645,28.799,30.573,28.179z
			 M6.779,36.56c-1.15,3.09,0.585,5.239,2.315,5.863c3.298,1.189,6.412,0.839,8.811-2.042c0.318-0.381,0.255-1.079,0.369-1.63
			c-0.125-0.061-0.251-0.122-0.376-0.183c-1.64,1.934-3.76,2.153-6.094,2.101C9.056,40.609,7.906,38.733,6.779,36.56z
			 M16.513,37.951c-2.524-0.369-5.046-0.755-7.575-1.083C8.65,36.831,8.32,37.121,8.009,37.26c0.211,0.288,0.363,0.733,0.643,0.839
			C11.247,39.081,13.871,39.344,16.513,37.951z"/>
		<path fill="#338E72" d="M14.603,25.432c1.14-0.212,2.199-0.594,2.982,0.574c0.083,0.124,0.556-0.031,0.848-0.026
			c0.521,0.009,1.041,0.042,1.545,0.224C17.217,27.256,15.135,26.922,14.603,25.432z"/>
		<path fill="#338E72" d="M6.63,25.488c-0.425-0.071-0.793-0.034-1.022-0.194c-0.384-0.269-0.679-0.664-1.011-1.006
			c0.21-0.128,0.492-0.414,0.617-0.356c0.448,0.206,0.867,0.499,1.243,0.822C6.587,24.865,6.56,25.16,6.63,25.488z"/>
	</g>
</g>
</svg>
